<?xml version="1.0" encoding="UTF-8" standalone="no"?>
<!-- Created with Inkscape (http://www.inkscape.org/) -->

<svg
   version="1.1"
   id="svg2"
   width="1781.0533"
   height="542.39203"
   viewBox="0 0 1781.0533 542.39203"
   sodipodi:docname="logo_NH_semendosso_fonteaberta.ai"
   xmlns:inkscape="http://www.inkscape.org/namespaces/inkscape"
   xmlns:sodipodi="http://sodipodi.sourceforge.net/DTD/sodipodi-0.dtd"
   xmlns="http://www.w3.org/2000/svg"
   xmlns:svg="http://www.w3.org/2000/svg">
  <defs
     id="defs6">
    <clipPath
       clipPathUnits="userSpaceOnUse"
       id="clipPath16">
      <path
         d="M 0,406.794 H 1335.794 V 0 H 0 Z"
         id="path14" />
    </clipPath>
  </defs>
  <sodipodi:namedview
     id="namedview4"
     pagecolor="#ffffff"
     bordercolor="#000000"
     borderopacity="0.25"
     inkscape:showpageshadow="2"
     inkscape:pageopacity="0.0"
     inkscape:pagecheckerboard="0"
     inkscape:deskcolor="#d1d1d1" />
  <g
     id="g8"
     inkscape:groupmode="layer"
     inkscape:label="logo_NH_semendosso_fonteaberta"
     transform="matrix(1.3333333,0,0,-1.3333333,0,542.392)">
    <g
       id="g10">
      <g
         id="g12"
         clip-path="url(#clipPath16)">
        <g
           id="g18"
           transform="translate(382.4301,204.6961)">
          <path
             d="m 0,0 -32.672,59.265 c -0.345,0.625 -1.003,1.013 -1.717,1.013 h -22.718 c -1.083,0 -1.96,-0.877 -1.96,-1.96 v -90.711 c 0,-1.082 0.877,-1.96 1.96,-1.96 h 18.14 c 1.083,0 1.96,0.872 1.96,1.955 -0.001,8.718 -0.01,44.23 -0.077,58.081 -0.003,0.505 0.668,0.676 0.916,0.237 l 33.462,-59.276 c 0.348,-0.616 1,-0.997 1.707,-0.997 h 21.943 c 1.082,0 1.96,0.878 1.96,1.96 v 90.711 c 0,1.083 -0.878,1.96 -1.96,1.96 H 2.802 c -1.082,0 -1.96,-0.872 -1.96,-1.954 C 0.844,49.616 0.853,14.172 0.919,0.232 0.921,-0.275 0.245,-0.445 0,0"
             style="fill:#0c2c6c;fill-opacity:1;fill-rule:nonzero;stroke:none"
             id="path20" />
        </g>
        <g
           id="g22"
           transform="translate(439.0898,209.6317)">
          <path
             d="m 0,0 h 36.838 c 1.083,0 1.96,0.877 1.96,1.96 v 14.225 c 0,1.082 -0.877,1.96 -1.96,1.96 H 0 c -0.271,0 -0.49,0.219 -0.49,0.489 v 17.944 c 0,0.271 0.219,0.49 0.49,0.49 h 38.535 c 1.266,0 2.2,1.183 1.906,2.415 l -3.425,14.355 c -0.211,0.882 -1,1.505 -1.907,1.505 h -57.526 c -1.083,0 -1.96,-0.878 -1.96,-1.96 v -90.711 c 0,-1.083 0.877,-1.96 1.96,-1.96 h 62.388 c 1.083,0 1.96,0.877 1.96,1.96 v 14.355 c 0,1.082 -0.877,1.959 -1.96,1.959 H 0 c -0.271,0 -0.49,0.22 -0.49,0.49 V -0.49 C -0.49,-0.219 -0.271,0 0,0"
             style="fill:#0c2c6c;fill-opacity:1;fill-rule:nonzero;stroke:none"
             id="path24" />
        </g>
        <g
           id="g26"
           transform="translate(571.118,203.8735)">
          <path
             d="m 0,0 c -3.09,15.32 -10.819,51.625 -12.509,59.554 -0.192,0.905 -0.991,1.547 -1.915,1.547 h -20.602 c -0.925,0 -1.723,-0.642 -1.916,-1.547 -1.69,-7.929 -9.418,-44.235 -12.509,-59.555 -0.106,-0.527 -0.859,-0.518 -0.961,0.009 l -11.442,59.503 c -0.177,0.923 -0.985,1.59 -1.925,1.59 h -20.138 c -1.266,0 -2.2,-1.182 -1.907,-2.414 l 21.592,-90.711 c 0.21,-0.883 0.999,-1.506 1.906,-1.506 h 22.96 c 0.936,0 1.741,0.661 1.923,1.578 l 12.23,61.613 c 0.105,0.526 0.858,0.526 0.962,-0.001 l 12.114,-61.608 c 0.181,-0.919 0.986,-1.582 1.923,-1.582 h 23.089 c 0.908,0 1.697,0.623 1.907,1.506 l 21.591,90.711 c 0.294,1.232 -0.64,2.414 -1.906,2.414 h -20.14 c -0.939,0 -1.747,-0.667 -1.924,-1.59 L 0.96,0.01 C 0.859,-0.518 0.106,-0.527 0,0"
             style="fill:#0c2c6c;fill-opacity:1;fill-rule:nonzero;stroke:none"
             id="path28" />
        </g>
        <g
           id="g30"
           transform="translate(696.6951,227.7762)">
          <path
             d="m 0,0 h -32.825 c -0.27,0 -0.49,0.219 -0.49,0.49 v 34.748 c 0,1.083 -0.877,1.96 -1.96,1.96 h -19.967 c -1.083,0 -1.96,-0.877 -1.96,-1.96 v -90.711 c 0,-1.082 0.877,-1.96 1.96,-1.96 h 19.967 c 1.083,0 1.96,0.878 1.96,1.96 v 36.054 c 0,0.27 0.22,0.49 0.49,0.49 H 0 c 0.271,0 0.49,-0.22 0.49,-0.49 v -36.054 c 0,-1.082 0.877,-1.96 1.96,-1.96 h 19.967 c 1.083,0 1.96,0.878 1.96,1.96 v 90.711 c 0,1.083 -0.877,1.96 -1.96,1.96 H 2.45 c -1.083,0 -1.96,-0.877 -1.96,-1.96 L 0.49,0.49 C 0.49,0.219 0.271,0 0,0"
             style="fill:#0c2c6c;fill-opacity:1;fill-rule:nonzero;stroke:none"
             id="path32" />
        </g>
        <g
           id="g34"
           transform="translate(852.202,264.9743)">
          <path
             d="m 0,0 h -19.969 c -1.082,0 -1.959,-0.877 -1.959,-1.96 v -90.711 c 0,-1.082 0.877,-1.96 1.959,-1.96 h 57.69 c 1.082,0 1.96,0.878 1.96,1.96 v 15.922 c 0,1.083 -0.878,1.96 -1.96,1.96 H 2.45 c -0.271,0 -0.49,0.22 -0.49,0.49 V -1.96 C 1.96,-0.877 1.082,0 0,0"
             style="fill:#0c2c6c;fill-opacity:1;fill-rule:nonzero;stroke:none"
             id="path36" />
        </g>
        <g
           id="g38"
           transform="translate(922.3537,264.9743)">
          <path
             d="m 0,0 h -19.969 c -1.082,0 -1.959,-0.877 -1.959,-1.96 v -90.711 c 0,-1.082 0.877,-1.96 1.959,-1.96 h 51.05 c 0.823,0 1.559,0.515 1.841,1.289 l 5.801,15.923 c 0.466,1.278 -0.481,2.63 -1.841,2.63 H 2.45 c -0.271,0 -0.49,0.22 -0.49,0.49 V -1.96 C 1.96,-0.877 1.082,0 0,0"
             style="fill:#0c2c6c;fill-opacity:1;fill-rule:nonzero;stroke:none"
             id="path40" />
        </g>
        <g
           id="g42"
           transform="translate(1021.7217,209.5015)">
          <path
             d="m 0,0 h -20.031 c -0.33,0 -0.565,0.319 -0.468,0.635 l 10.016,32.444 c 0.142,0.46 0.794,0.46 0.936,0 L 0.468,0.635 C 0.565,0.319 0.33,0 0,0 m -23.701,54.182 -32.964,-90.711 c -0.464,-1.278 0.482,-2.629 1.842,-2.629 h 19.949 c 0.849,0 1.601,0.546 1.864,1.354 l 6.497,19.974 c 0.066,0.202 0.254,0.338 0.466,0.338 H 6.015 c 0.212,0 0.4,-0.136 0.466,-0.338 l 6.498,-19.975 c 0.263,-0.807 1.015,-1.353 1.864,-1.353 h 20.079 c 1.36,0 2.307,1.351 1.842,2.629 L 3.8,54.182 c -0.281,0.775 -1.018,1.291 -1.842,1.291 h -23.817 c -0.824,0 -1.56,-0.516 -1.842,-1.291"
             style="fill:#0c2c6c;fill-opacity:1;fill-rule:nonzero;stroke:none"
             id="path44" />
        </g>
        <g
           id="g46"
           transform="translate(1124.2274,204.6951)">
          <path
             d="m 0,0 -32.673,59.266 c -0.345,0.625 -1.003,1.013 -1.717,1.013 h -22.719 c -1.083,0 -1.96,-0.877 -1.96,-1.96 v -90.711 c 0,-1.082 0.877,-1.96 1.96,-1.96 h 18.14 c 1.083,0 1.96,0.872 1.96,1.955 -10e-4,8.718 -0.01,44.231 -0.076,58.082 -0.003,0.505 0.668,0.677 0.916,0.237 l 33.463,-59.277 c 0.347,-0.616 1,-0.997 1.707,-0.997 h 21.942 c 1.082,0 1.96,0.878 1.96,1.96 v 90.711 c 0,1.083 -0.878,1.96 -1.96,1.96 H 2.802 C 1.72,60.279 0.842,59.407 0.843,58.325 0.844,49.617 0.853,14.172 0.919,0.232 0.921,-0.275 0.245,-0.445 0,0"
             style="fill:#0c2c6c;fill-opacity:1;fill-rule:nonzero;stroke:none"
             id="path48" />
        </g>
        <g
           id="g50"
           transform="translate(797.4923,217.6593)">
          <path
             d="m 0,0 c 0,-21.26 -6.322,-29.933 -21.819,-29.933 -15.499,0 -21.821,8.673 -21.821,29.933 0,21.259 6.322,29.932 21.821,29.932 C -6.322,29.932 0,21.259 0,0 m -21.819,48.891 c -21.444,0 -46.058,-5.558 -46.058,-48.891 0,-43.334 24.614,-48.892 46.058,-48.892 21.444,0 46.058,5.558 46.058,48.892 0,43.333 -24.614,48.891 -46.058,48.891"
             style="fill:#0c2c6c;fill-opacity:1;fill-rule:nonzero;stroke:none"
             id="path52" />
        </g>
        <g
           id="g54"
           transform="translate(1216.9196,217.6565)">
          <path
             d="M 0,0 C 0,-25.801 -12.231,-29.145 -22.888,-29.174 H -36.03 c -0.27,0 -0.49,0.22 -0.49,0.49 v 57.367 c 0,0.27 0.22,0.49 0.49,0.49 h 13.139 C -12.233,29.144 0,25.802 0,0 m -22.887,47.322 h -35.564 c -1.082,0 -1.96,-0.877 -1.96,-1.96 v -90.715 c 0,-1.082 0.878,-1.96 1.96,-1.96 h 35.564 c 21.972,0.023 47.194,5.422 47.194,47.313 0,41.899 -25.222,47.299 -47.194,47.322"
             style="fill:#0c2c6c;fill-opacity:1;fill-rule:nonzero;stroke:none"
             id="path56" />
        </g>
        <g
           id="g58"
           transform="translate(95.3474,229.6296)">
          <path
             d="m 0,0 c -0.124,-0.542 -0.084,-0.687 -0.084,-0.852 -1.539,-15.438 -0.179,-30.9 0.771,-40.762 4.445,-45.801 38.292,-57.151 52.585,-61.193 6.024,-1.696 18.84,-3.568 23.102,-3.723 5.94,-0.195 7.2,2.754 7.078,5.091 -1.219,26.355 -28.493,54.336 -28.493,54.336 -0.653,0.95 -4.747,4.933 -9.515,9.505 C 38.693,-30.863 4.398,1.781 4.398,1.781 3.913,2.283 3.263,2.6 2.576,2.6 1.155,2.6 0.101,1.727 0,0 m 75.219,82.543 c 2.694,0.293 5.088,-0.636 6.041,-2.437 0.912,-1.604 0.792,-3.425 0.973,-5.685 0.67,-8.865 0.973,-23.351 0.973,-24.826 l 0.343,-26.994 c 0.065,-5.209 -3.747,-4.529 -5.09,-3.162 -1.495,1.536 -13.826,13.344 -25.631,24.765 L 31.715,64.583 c -1.458,1.407 -2.148,3.774 0.388,6.054 2.269,2.077 10.078,5.603 21.516,8.536 3.569,0.908 8.374,1.841 12.553,2.421 4.99,0.71 9.047,0.949 9.047,0.949 M 23.524,57.02 51.508,29.904 c 8.236,-7.99 14.175,-15.583 18.661,-22.749 6.323,-10.104 12.593,-27.264 12.916,-40.692 0,0 0.327,-6.64 0.307,-12.97 0.04,-2.223 0.06,-4.478 -0.045,-6.293 -0.141,-2.422 -3.04,-3.148 -4.339,-1.882 L 5.229,15.977 c -2.653,2.529 -3.367,5.896 -3.141,8.859 0.852,11.432 8.721,27.248 13.647,31.84 3.408,3.193 6.206,1.866 7.789,0.344 M 179.921,0 c 0.125,-0.542 0.084,-0.687 0.084,-0.852 1.54,-15.438 0.159,-30.9 -0.794,-40.762 -4.421,-45.801 -38.264,-57.151 -52.562,-61.193 -6.027,-1.696 -18.862,-3.568 -23.122,-3.723 -5.899,-0.195 -7.199,2.754 -7.078,5.091 1.26,26.355 28.494,54.336 28.494,54.336 0.67,0.95 4.764,4.95 9.515,9.505 6.852,6.812 41.08,39.379 41.08,39.379 0.447,0.502 1.101,0.819 1.828,0.819 1.38,0 2.435,-0.873 2.555,-2.6 M 104.723,82.543 C 102.029,82.836 99.635,81.907 98.661,80.106 97.77,78.502 97.867,76.681 97.688,74.421 97.019,65.556 96.715,51.07 96.692,49.595 L 96.368,22.601 c -0.06,-5.209 3.731,-4.529 5.092,-3.162 1.522,1.536 13.829,13.384 25.634,24.765 l 21.109,20.379 c 1.461,1.407 2.131,3.774 -0.405,6.054 -2.248,2.077 -10.06,5.603 -21.498,8.536 -3.566,0.908 -8.415,1.841 -12.57,2.421 -4.97,0.71 -9.007,0.949 -9.007,0.949 M 156.378,57.02 128.414,29.904 C 120.198,21.93 114.259,14.321 109.753,7.155 103.406,-2.949 97.16,-20.109 96.833,-33.537 c 0,0 -0.323,-6.64 -0.323,-12.97 -0.04,-2.223 -0.061,-4.478 0.04,-6.293 0.142,-2.422 3.044,-3.148 4.361,-1.882 l 73.798,70.659 c 2.657,2.529 3.347,5.896 3.125,8.859 -0.872,11.432 -8.721,27.248 -13.667,31.84 -3.391,3.193 -6.206,1.866 -7.789,0.344"
             style="fill:#0c2c6c;fill-opacity:1;fill-rule:evenodd;stroke:none"
             id="path60" />
        </g>
      </g>
    </g>
    <text
       xml:space="preserve"
       transform="matrix(1,0,0,-1,875.0552,94.5762)"
       style="font-variant:normal;font-weight:900;font-stretch:normal;font-size:39.0276px;font-family:'Lato Black';-inkscape-font-specification:Lato-Black;writing-mode:lr-tb;fill:#0c2c6c;fill-opacity:1;fill-rule:nonzero;stroke:none"
       id="text64"><tspan
         x="0 21.15296 43.203552 79.850471 104.75008 130.70343 152.75403 160.28635 185.92749 217.14957 253.79648 261.3288 288.92133 320.1434 345.78455"
         y="0"
         sodipodi:role="line"
         id="tspan62">SEMPRE COM VOCÊ</tspan></text>
  </g>
</svg>
